<svg xmlns="http://www.w3.org/2000/svg" viewBox="0 0 800 800" width="800" height="800">
  <defs>
    <linearGradient id="sky" x1="0" y1="0" x2="0" y2="1">
      <stop offset="0" stop-color="#0f0d13"/>
      <stop offset="1" stop-color="#171009"/>
    </linearGradient>
    <radialGradient id="glow" cx="0.5" cy="0.45" r="0.75">
      <stop offset="0" stop-color="#ff7a1a" stop-opacity="0.55"/>
      <stop offset="1" stop-color="#ff7a1a" stop-opacity="0"/>
    </radialGradient>
    <linearGradient id="flame" x1="0" y1="1" x2="0" y2="0">
      <stop offset="0" stop-color="#ff5a1f"/>
      <stop offset="0.55" stop-color="#ff9a1f"/>
      <stop offset="1" stop-color="#ffe066"/>
    </linearGradient>
    <filter id="blur" x="-80%" y="-80%" width="260%" height="260%"><feGaussianBlur stdDeviation="18"/></filter>
    <filter id="blurS" x="-50%" y="-50%" width="200%" height="200%"><feGaussianBlur stdDeviation="4"/></filter>
  </defs>
  <rect width="800" height="800" fill="url(#sky)"/>
  <rect width="800" height="800" fill="url(#glow)"/><rect x="-20.0" y="369.5" width="90.2" height="450.5" fill="#0b0a08" opacity="0.85"/><rect x="78.2" y="493.0" width="123.7" height="327.0" fill="#0b0a08" opacity="0.85"/><rect x="209.9" y="485.1" width="169.2" height="334.9" fill="#0b0a08" opacity="0.85"/><rect x="387.2" y="449.6" width="122.3" height="370.4" fill="#0b0a08" opacity="0.85"/><rect x="517.5" y="462.4" width="167.7" height="357.6" fill="#0b0a08" opacity="0.85"/><rect x="693.2" y="405.0" width="94.7" height="415.0" fill="#0b0a08" opacity="0.85"/><rect x="795.9" y="447.7" width="116.8" height="372.3" fill="#0b0a08" opacity="0.85"/><circle cx="400.0" cy="207.7" r="39.1" fill="#5a5248" opacity="0.50" filter="url(#blur)"/><circle cx="407.2" cy="166.6" r="47.7" fill="#5a5248" opacity="0.45" filter="url(#blur)"/><circle cx="430.8" cy="116.6" r="58.2" fill="#5a5248" opacity="0.39" filter="url(#blur)"/><circle cx="458.3" cy="55.4" r="71.0" fill="#5a5248" opacity="0.33" filter="url(#blur)"/><circle cx="490.6" cy="-19.1" r="86.6" fill="#5a5248" opacity="0.28" filter="url(#blur)"/><circle cx="496.4" cy="-110.1" r="105.7" fill="#5a5248" opacity="0.22" filter="url(#blur)"/><circle cx="490.4" cy="-221.0" r="128.9" fill="#5a5248" opacity="0.17" filter="url(#blur)"/><rect x="245" y="130" width="310" height="570" fill="#191510"/><rect x="245" y="130" width="310" height="570" fill="none" stroke="#000" stroke-opacity="0.4" stroke-width="3"/><rect x="231" y="104" width="338" height="26" fill="#12100c"/><rect x="256.4" y="138.8" width="28.9" height="26.3" fill="#3d3623" opacity="0.87"/><rect x="308.0" y="138.8" width="28.9" height="26.3" fill="#15130e" opacity="0.79"/><rect x="359.7" y="138.8" width="28.9" height="26.3" fill="#15130e" opacity="0.55"/><rect x="411.4" y="138.8" width="28.9" height="26.3" fill="#15130e" opacity="0.86"/><rect x="463.0" y="138.8" width="28.9" height="26.3" fill="#15130e" opacity="0.76"/><rect x="514.7" y="138.8" width="28.9" height="26.3" fill="#3d3623" opacity="0.87"/><rect x="256.4" y="182.6" width="28.9" height="26.3" fill="#15130e" opacity="0.53"/><rect x="308.0" y="182.6" width="28.9" height="26.3" fill="#3d3623" opacity="0.72"/><rect x="359.7" y="182.6" width="28.9" height="26.3" fill="#15130e" opacity="0.57"/><rect x="411.4" y="182.6" width="28.9" height="26.3" fill="#3d3623" opacity="0.82"/><rect x="463.0" y="182.6" width="28.9" height="26.3" fill="#15130e" opacity="0.82"/><rect x="514.7" y="182.6" width="28.9" height="26.3" fill="#15130e" opacity="0.57"/><rect x="256.4" y="226.5" width="28.9" height="26.3" fill="#ff8c1a" opacity="0.85"/><rect x="308.0" y="226.5" width="28.9" height="26.3" fill="#ff8c1a" opacity="0.92"/><rect x="359.7" y="226.5" width="28.9" height="26.3" fill="#ff8c1a" opacity="0.82"/><rect x="411.4" y="226.5" width="28.9" height="26.3" fill="#ff8c1a" opacity="0.80"/><rect x="463.0" y="226.5" width="28.9" height="26.3" fill="#ff8c1a" opacity="0.89"/><rect x="514.7" y="226.5" width="28.9" height="26.3" fill="#ff8c1a" opacity="0.96"/><rect x="256.4" y="270.3" width="28.9" height="26.3" fill="#ff8c1a" opacity="0.89"/><rect x="308.0" y="270.3" width="28.9" height="26.3" fill="#ff8c1a" opacity="0.94"/><rect x="359.7" y="270.3" width="28.9" height="26.3" fill="#ffd24d" opacity="0.79"/><rect x="411.4" y="270.3" width="28.9" height="26.3" fill="#ff8c1a" opacity="0.95"/><rect x="463.0" y="270.3" width="28.9" height="26.3" fill="#ffd24d" opacity="0.91"/><rect x="514.7" y="270.3" width="28.9" height="26.3" fill="#ffd24d" opacity="0.89"/><rect x="256.4" y="314.2" width="28.9" height="26.3" fill="#15130e" opacity="0.60"/><rect x="308.0" y="314.2" width="28.9" height="26.3" fill="#15130e" opacity="0.70"/><rect x="359.7" y="314.2" width="28.9" height="26.3" fill="#3d3623" opacity="0.67"/><rect x="411.4" y="314.2" width="28.9" height="26.3" fill="#15130e" opacity="0.60"/><rect x="463.0" y="314.2" width="28.9" height="26.3" fill="#15130e" opacity="0.77"/><rect x="514.7" y="314.2" width="28.9" height="26.3" fill="#3d3623" opacity="0.52"/><rect x="256.4" y="358.0" width="28.9" height="26.3" fill="#15130e" opacity="0.55"/><rect x="308.0" y="358.0" width="28.9" height="26.3" fill="#15130e" opacity="0.71"/><rect x="359.7" y="358.0" width="28.9" height="26.3" fill="#15130e" opacity="0.81"/><rect x="411.4" y="358.0" width="28.9" height="26.3" fill="#15130e" opacity="0.59"/><rect x="463.0" y="358.0" width="28.9" height="26.3" fill="#3d3623" opacity="0.64"/><rect x="514.7" y="358.0" width="28.9" height="26.3" fill="#3d3623" opacity="0.88"/><rect x="256.4" y="401.8" width="28.9" height="26.3" fill="#3d3623" opacity="0.84"/><rect x="308.0" y="401.8" width="28.9" height="26.3" fill="#15130e" opacity="0.70"/><rect x="359.7" y="401.8" width="28.9" height="26.3" fill="#15130e" opacity="0.85"/><rect x="411.4" y="401.8" width="28.9" height="26.3" fill="#3d3623" opacity="0.65"/><rect x="463.0" y="401.8" width="28.9" height="26.3" fill="#15130e" opacity="0.62"/><rect x="514.7" y="401.8" width="28.9" height="26.3" fill="#3d3623" opacity="0.86"/><rect x="256.4" y="445.7" width="28.9" height="26.3" fill="#15130e" opacity="0.54"/><rect x="308.0" y="445.7" width="28.9" height="26.3" fill="#15130e" opacity="0.54"/><rect x="359.7" y="445.7" width="28.9" height="26.3" fill="#3d3623" opacity="0.64"/><rect x="411.4" y="445.7" width="28.9" height="26.3" fill="#15130e" opacity="0.65"/><rect x="463.0" y="445.7" width="28.9" height="26.3" fill="#15130e" opacity="0.59"/><rect x="514.7" y="445.7" width="28.9" height="26.3" fill="#15130e" opacity="0.74"/><rect x="256.4" y="489.5" width="28.9" height="26.3" fill="#15130e" opacity="0.72"/><rect x="308.0" y="489.5" width="28.9" height="26.3" fill="#15130e" opacity="0.51"/><rect x="359.7" y="489.5" width="28.9" height="26.3" fill="#3d3623" opacity="0.87"/><rect x="411.4" y="489.5" width="28.9" height="26.3" fill="#15130e" opacity="0.86"/><rect x="463.0" y="489.5" width="28.9" height="26.3" fill="#3d3623" opacity="0.82"/><rect x="514.7" y="489.5" width="28.9" height="26.3" fill="#15130e" opacity="0.78"/><rect x="256.4" y="533.4" width="28.9" height="26.3" fill="#15130e" opacity="0.83"/><rect x="308.0" y="533.4" width="28.9" height="26.3" fill="#15130e" opacity="0.86"/><rect x="359.7" y="533.4" width="28.9" height="26.3" fill="#15130e" opacity="0.59"/><rect x="411.4" y="533.4" width="28.9" height="26.3" fill="#15130e" opacity="0.75"/><rect x="463.0" y="533.4" width="28.9" height="26.3" fill="#15130e" opacity="0.76"/><rect x="514.7" y="533.4" width="28.9" height="26.3" fill="#15130e" opacity="0.85"/><rect x="256.4" y="577.2" width="28.9" height="26.3" fill="#15130e" opacity="0.75"/><rect x="308.0" y="577.2" width="28.9" height="26.3" fill="#15130e" opacity="0.66"/><rect x="359.7" y="577.2" width="28.9" height="26.3" fill="#15130e" opacity="0.88"/><rect x="411.4" y="577.2" width="28.9" height="26.3" fill="#15130e" opacity="0.57"/><rect x="463.0" y="577.2" width="28.9" height="26.3" fill="#15130e" opacity="0.68"/><rect x="514.7" y="577.2" width="28.9" height="26.3" fill="#15130e" opacity="0.82"/><rect x="256.4" y="621.1" width="28.9" height="26.3" fill="#15130e" opacity="0.75"/><rect x="308.0" y="621.1" width="28.9" height="26.3" fill="#15130e" opacity="0.57"/><rect x="359.7" y="621.1" width="28.9" height="26.3" fill="#15130e" opacity="0.80"/><rect x="411.4" y="621.1" width="28.9" height="26.3" fill="#15130e" opacity="0.61"/><rect x="463.0" y="621.1" width="28.9" height="26.3" fill="#15130e" opacity="0.86"/><rect x="514.7" y="621.1" width="28.9" height="26.3" fill="#15130e" opacity="0.55"/><rect x="256.4" y="664.9" width="28.9" height="26.3" fill="#15130e" opacity="0.68"/><rect x="308.0" y="664.9" width="28.9" height="26.3" fill="#15130e" opacity="0.88"/><rect x="359.7" y="664.9" width="28.9" height="26.3" fill="#15130e" opacity="0.61"/><rect x="411.4" y="664.9" width="28.9" height="26.3" fill="#15130e" opacity="0.71"/><rect x="463.0" y="664.9" width="28.9" height="26.3" fill="#15130e" opacity="0.76"/><rect x="514.7" y="664.9" width="28.9" height="26.3" fill="#15130e" opacity="0.71"/><ellipse cx="400" cy="251.69230769230768" rx="192.2" ry="46" fill="#ff7a1a" opacity="0.3" filter="url(#blur)"/><path d="M250.85751028806584 247.69230769230768 Q258.96800411522634 215.4906234501952 264.375 189.1437908884668 Q271.13374485596705 218.41804929038724 277.89248971193416 247.69230769230768 Z" fill="url(#flame)" opacity="0.92" filter="url(#blurS)"/><path d="M289.4925925925926 247.69230769230768 Q297.67203703703706 220.49563759628572 303.125 198.2438166086314 Q309.9412037037037 222.96806215046954 316.7574074074074 247.69230769230768 Z" fill="url(#flame)" opacity="0.84" filter="url(#blurS)"/><path d="M329.7017489711934 247.69230769230768 Q337.00569958847734 217.12588322385776 341.875 192.11699047694418 Q347.9616255144033 219.90464908462593 354.0482510288066 247.69230769230768 Z" fill="url(#flame)" opacity="0.95" filter="url(#blurS)"/><path d="M368.151646090535 247.69230769230768 Q375.635658436214 220.13969366624457 380.625 197.5966458267384 Q386.8616769547325 222.64447675952306 393.098353909465 247.69230769230768 Z" fill="url(#flame)" opacity="0.93" filter="url(#blurS)"/><path d="M409.508950617284 247.69230769230768 Q415.42858024691355 218.99540225677956 419.375 195.51611599134748 Q424.308024691358 221.60421184182758 429.241049382716 247.69230769230768 Z" fill="url(#flame)" opacity="0.87" filter="url(#blurS)"/><path d="M450.44032921810697 247.69230769230768 Q455.0511316872428 228.45134232879602 458.125 212.70873430410467 Q461.9673353909465 230.20052099820617 465.80967078189303 247.69230769230768 Z" fill="url(#flame)" opacity="0.85" filter="url(#blurS)"/><path d="M487.6124485596708 247.69230769230768 Q493.1699794238683 212.66584721562728 496.875 184.00783409834332 Q501.5062757201646 215.8500708953255 506.1375514403292 247.69230769230768 Z" fill="url(#flame)" opacity="0.94" filter="url(#blurS)"/><path d="M525.691975308642 247.69230769230768 Q531.6517901234567 211.69725025060671 535.625 182.24674870739685 Q540.591512345679 214.96952819985228 545.558024691358 247.69230769230768 Z" fill="url(#flame)" opacity="0.84" filter="url(#blurS)"/><rect x="0" y="700" width="800" height="100" fill="#141210"/>
  <ellipse cx="400" cy="706" rx="330" ry="16" fill="#ff7a1a" opacity="0.12"/>
  <rect x="70" y="712" width="10" height="26" fill="#e14b4b" opacity="0.85"/>
  <rect x="86" y="712" width="10" height="26" fill="#4b7fe1" opacity="0.75"/>
  <ellipse cx="88" cy="748" rx="60" ry="9" fill="#e14b4b" opacity="0.18"/></svg>