<svg xmlns="http://www.w3.org/2000/svg" viewBox="0 0 800 800" width="800" height="800">
  <defs>
    <linearGradient id="sky" x1="0" y1="0" x2="0" y2="1">
      <stop offset="0" stop-color="#0e0d12"/>
      <stop offset="1" stop-color="#190f07"/>
    </linearGradient>
    <radialGradient id="glow" cx="0.5" cy="0.6" r="0.75">
      <stop offset="0" stop-color="#ff6a1a" stop-opacity="0.55"/>
      <stop offset="1" stop-color="#ff6a1a" stop-opacity="0"/>
    </radialGradient>
    <linearGradient id="flame" x1="0" y1="1" x2="0" y2="0">
      <stop offset="0" stop-color="#ff5a1f"/>
      <stop offset="0.55" stop-color="#ff9a1f"/>
      <stop offset="1" stop-color="#ffe066"/>
    </linearGradient>
    <filter id="blur" x="-80%" y="-80%" width="260%" height="260%"><feGaussianBlur stdDeviation="18"/></filter>
    <filter id="blurS" x="-50%" y="-50%" width="200%" height="200%"><feGaussianBlur stdDeviation="4"/></filter>
  </defs>
  <rect width="800" height="800" fill="url(#sky)"/>
  <rect width="800" height="800" fill="url(#glow)"/><rect x="-20.0" y="288.8" width="95.0" height="441.2" fill="#0b0a08" opacity="0.85"/><rect x="83.0" y="277.0" width="113.5" height="453.0" fill="#0b0a08" opacity="0.85"/><rect x="204.5" y="322.9" width="91.1" height="407.1" fill="#0b0a08" opacity="0.85"/><rect x="303.6" y="313.3" width="155.6" height="416.7" fill="#0b0a08" opacity="0.85"/><rect x="467.2" y="307.6" width="137.1" height="422.4" fill="#0b0a08" opacity="0.85"/><rect x="612.3" y="370.5" width="94.0" height="359.5" fill="#0b0a08" opacity="0.85"/><rect x="714.4" y="305.9" width="141.9" height="424.1" fill="#0b0a08" opacity="0.85"/><path d="M90 700 V430 l70 -50 v50 l70 -50 v50 l70 -50 v50 l70 -50 v50 l70 -50 v50 l70 -50 v50 l70 -50 V700 Z" fill="#181410"/><rect x="620" y="240" width="40" height="200" fill="#141210"/><rect x="124.2" y="493.3" width="36.1" height="40.0" fill="#15130e" opacity="0.69"/><rect x="188.6" y="493.3" width="36.1" height="40.0" fill="#15130e" opacity="0.65"/><rect x="253.1" y="493.3" width="36.1" height="40.0" fill="#15130e" opacity="0.62"/><rect x="317.5" y="493.3" width="36.1" height="40.0" fill="#3d3623" opacity="0.73"/><rect x="382.0" y="493.3" width="36.1" height="40.0" fill="#15130e" opacity="0.61"/><rect x="446.4" y="493.3" width="36.1" height="40.0" fill="#3d3623" opacity="0.81"/><rect x="510.8" y="493.3" width="36.1" height="40.0" fill="#15130e" opacity="0.64"/><rect x="575.3" y="493.3" width="36.1" height="40.0" fill="#3d3623" opacity="0.60"/><rect x="639.7" y="493.3" width="36.1" height="40.0" fill="#15130e" opacity="0.68"/><rect x="124.2" y="560.0" width="36.1" height="40.0" fill="#ff8c1a" opacity="0.78"/><rect x="188.6" y="560.0" width="36.1" height="40.0" fill="#ff8c1a" opacity="0.92"/><rect x="253.1" y="560.0" width="36.1" height="40.0" fill="#ffd24d" opacity="0.92"/><rect x="317.5" y="560.0" width="36.1" height="40.0" fill="#ff8c1a" opacity="0.80"/><rect x="382.0" y="560.0" width="36.1" height="40.0" fill="#ff8c1a" opacity="0.97"/><rect x="446.4" y="560.0" width="36.1" height="40.0" fill="#ff8c1a" opacity="0.95"/><rect x="510.8" y="560.0" width="36.1" height="40.0" fill="#ff8c1a" opacity="0.98"/><rect x="575.3" y="560.0" width="36.1" height="40.0" fill="#ff8c1a" opacity="0.79"/><rect x="639.7" y="560.0" width="36.1" height="40.0" fill="#ff8c1a" opacity="0.78"/><rect x="124.2" y="626.7" width="36.1" height="40.0" fill="#ff8c1a" opacity="0.92"/><rect x="188.6" y="626.7" width="36.1" height="40.0" fill="#ff8c1a" opacity="0.97"/><rect x="253.1" y="626.7" width="36.1" height="40.0" fill="#ff8c1a" opacity="0.75"/><rect x="317.5" y="626.7" width="36.1" height="40.0" fill="#ffd24d" opacity="0.93"/><rect x="382.0" y="626.7" width="36.1" height="40.0" fill="#ffd24d" opacity="0.85"/><rect x="446.4" y="626.7" width="36.1" height="40.0" fill="#ff8c1a" opacity="0.94"/><rect x="510.8" y="626.7" width="36.1" height="40.0" fill="#ffd24d" opacity="0.86"/><rect x="575.3" y="626.7" width="36.1" height="40.0" fill="#ffd24d" opacity="1.00"/><rect x="639.7" y="626.7" width="36.1" height="40.0" fill="#ffd24d" opacity="0.93"/><ellipse cx="400" cy="660" rx="330" ry="60" fill="#ff7a1a" opacity="0.28" filter="url(#blur)"/><path d="M151.893244170096 640 Q156.7572976680384 618.3570096021948 160 600.6491083676269 Q164.053377914952 620.3245541838135 168.106755829904 640 Z" fill="url(#flame)" opacity="0.99" filter="url(#blurS)"/><path d="M187.7721536351166 640 Q195.10886145404663 620.7656502914951 200 605.0284550754458 Q206.1139231824417 622.514227537723 212.2278463648834 640 Z" fill="url(#flame)" opacity="0.85" filter="url(#blurS)"/><path d="M231.66958161865568 640 Q236.6678326474623 618.313411351166 240 600.5698388203018 Q244.16520919067216 620.2849194101509 248.33041838134432 640 Z" fill="url(#flame)" opacity="1.00" filter="url(#blurS)"/><path d="M272.25219478737995 640 Q276.900877914952 600.4586261145405 280 568.1065929355282 Q283.87390260631 604.0532964677641 287.74780521262005 640 Z" fill="url(#flame)" opacity="0.93" filter="url(#blurS)"/><path d="M306.1866598079561 640 Q314.47466392318245 607.259627914952 320 580.4720507544581 Q326.90667009602197 610.2360253772291 333.8133401920439 640 Z" fill="url(#flame)" opacity="0.91" filter="url(#blurS)"/><path d="M346.13964334705076 640 Q354.4558573388203 602.8747500857339 360 572.4995456104252 Q366.9301783264746 606.2497728052126 373.86035665294924 640 Z" fill="url(#flame)" opacity="0.85" filter="url(#blurS)"/><path d="M388.7778120713306 640 Q395.5111248285322 602.0623259602195 400 571.0224108367627 Q405.6110939643347 605.5112054183813 411.2221879286694 640 Z" fill="url(#flame)" opacity="0.81" filter="url(#blurS)"/><path d="M430.7678326474623 640 Q436.3071330589849 619.5806888717422 440 602.8739797668038 Q444.6160836762689 621.4369898834019 449.2321673525377 640 Z" fill="url(#flame)" opacity="0.88" filter="url(#blurS)"/><path d="M468.7763717421125 640 Q475.510548696845 619.5881721536351 480 602.887585733882 Q485.61181412894376 621.4437928669411 491.2236282578875 640 Z" fill="url(#flame)" opacity="0.94" filter="url(#blurS)"/><path d="M507.4700960219479 640 Q514.9880384087792 616.8431091392318 520 597.8965620713305 Q526.264951989026 618.9482810356653 532.5299039780522 640 Z" fill="url(#flame)" opacity="0.88" filter="url(#blurS)"/><path d="M551.5156721536351 640 Q556.606268861454 600.8038331618656 560 568.7342421124829 Q564.2421639231825 604.3671210562414 568.4843278463649 640 Z" fill="url(#flame)" opacity="0.99" filter="url(#blurS)"/><path d="M589.5797668038409 640 Q595.8319067215364 611.5286775548697 600 588.2339591906722 Q605.2101165980796 614.116979595336 610.4202331961591 640 Z" fill="url(#flame)" opacity="0.93" filter="url(#blurS)"/><path d="M626.3290466392318 640 Q634.5316186556927 613.1759756515775 640 591.2290466392318 Q646.8354766803841 615.614523319616 653.6709533607682 640 Z" fill="url(#flame)" opacity="0.81" filter="url(#blurS)"/><circle cx="380.0" cy="420.0" r="44.2" fill="#5a5248" opacity="0.50" filter="url(#blur)"/><circle cx="362.5" cy="373.6" r="53.9" fill="#5a5248" opacity="0.45" filter="url(#blur)"/><circle cx="388.4" cy="317.0" r="65.8" fill="#5a5248" opacity="0.39" filter="url(#blur)"/><circle cx="393.9" cy="247.9" r="80.3" fill="#5a5248" opacity="0.33" filter="url(#blur)"/><circle cx="426.0" cy="163.6" r="97.9" fill="#5a5248" opacity="0.28" filter="url(#blur)"/><circle cx="451.1" cy="60.8" r="119.5" fill="#5a5248" opacity="0.22" filter="url(#blur)"/><circle cx="450.7" cy="-64.6" r="145.7" fill="#5a5248" opacity="0.17" filter="url(#blur)"/><rect x="0" y="700" width="800" height="100" fill="#141210"/>
  <ellipse cx="400" cy="706" rx="330" ry="16" fill="#ff7a1a" opacity="0.12"/>
  <rect x="70" y="712" width="10" height="26" fill="#e14b4b" opacity="0.85"/>
  <rect x="86" y="712" width="10" height="26" fill="#4b7fe1" opacity="0.75"/>
  <ellipse cx="88" cy="748" rx="60" ry="9" fill="#e14b4b" opacity="0.18"/></svg>