<svg xmlns="http://www.w3.org/2000/svg" viewBox="0 0 800 800" width="800" height="800">
  <defs>
    <linearGradient id="sky" x1="0" y1="0" x2="0" y2="1">
      <stop offset="0" stop-color="#0c1014"/>
      <stop offset="1" stop-color="#171009"/>
    </linearGradient>
    <radialGradient id="glow" cx="0.5" cy="0.45" r="0.75">
      <stop offset="0" stop-color="#ff7a1a" stop-opacity="0.55"/>
      <stop offset="1" stop-color="#ff7a1a" stop-opacity="0"/>
    </radialGradient>
    <linearGradient id="flame" x1="0" y1="1" x2="0" y2="0">
      <stop offset="0" stop-color="#ff5a1f"/>
      <stop offset="0.55" stop-color="#ff9a1f"/>
      <stop offset="1" stop-color="#ffe066"/>
    </linearGradient>
    <filter id="blur" x="-80%" y="-80%" width="260%" height="260%"><feGaussianBlur stdDeviation="18"/></filter>
    <filter id="blurS" x="-50%" y="-50%" width="200%" height="200%"><feGaussianBlur stdDeviation="4"/></filter>
  </defs>
  <rect width="800" height="800" fill="url(#sky)"/>
  <rect width="800" height="800" fill="url(#glow)"/><rect x="-20.0" y="359.7" width="74.1" height="460.3" fill="#0b0a08" opacity="0.85"/><rect x="62.1" y="397.3" width="152.8" height="422.7" fill="#0b0a08" opacity="0.85"/><rect x="223.0" y="422.2" width="124.2" height="397.8" fill="#0b0a08" opacity="0.85"/><rect x="355.1" y="399.0" width="119.8" height="421.0" fill="#0b0a08" opacity="0.85"/><rect x="482.9" y="481.6" width="108.5" height="338.4" fill="#0b0a08" opacity="0.85"/><rect x="599.5" y="495.8" width="128.4" height="324.2" fill="#0b0a08" opacity="0.85"/><rect x="735.9" y="373.1" width="152.2" height="446.9" fill="#0b0a08" opacity="0.85"/><circle cx="400.0" cy="262.5" r="39.1" fill="#5a5248" opacity="0.50" filter="url(#blur)"/><circle cx="419.0" cy="221.4" r="47.7" fill="#5a5248" opacity="0.45" filter="url(#blur)"/><circle cx="405.7" cy="171.4" r="58.2" fill="#5a5248" opacity="0.39" filter="url(#blur)"/><circle cx="428.4" cy="110.3" r="71.0" fill="#5a5248" opacity="0.33" filter="url(#blur)"/><circle cx="456.5" cy="35.7" r="86.6" fill="#5a5248" opacity="0.28" filter="url(#blur)"/><circle cx="456.3" cy="-55.2" r="105.7" fill="#5a5248" opacity="0.22" filter="url(#blur)"/><circle cx="480.4" cy="-166.2" r="128.9" fill="#5a5248" opacity="0.17" filter="url(#blur)"/><rect x="210" y="130" width="380" height="570" fill="#191510"/><rect x="210" y="130" width="380" height="570" fill="none" stroke="#000" stroke-opacity="0.4" stroke-width="3"/><rect x="196" y="104" width="408" height="26" fill="#12100c"/><rect x="221.9" y="144.3" width="30.4" height="42.8" fill="#3d3623" opacity="0.64"/><rect x="276.2" y="144.3" width="30.4" height="42.8" fill="#15130e" opacity="0.66"/><rect x="330.5" y="144.3" width="30.4" height="42.8" fill="#3d3623" opacity="0.70"/><rect x="384.8" y="144.3" width="30.4" height="42.8" fill="#15130e" opacity="0.77"/><rect x="439.1" y="144.3" width="30.4" height="42.8" fill="#3d3623" opacity="0.63"/><rect x="493.4" y="144.3" width="30.4" height="42.8" fill="#15130e" opacity="0.80"/><rect x="547.7" y="144.3" width="30.4" height="42.8" fill="#15130e" opacity="0.55"/><rect x="221.9" y="215.5" width="30.4" height="42.8" fill="#15130e" opacity="0.69"/><rect x="276.2" y="215.5" width="30.4" height="42.8" fill="#15130e" opacity="0.88"/><rect x="330.5" y="215.5" width="30.4" height="42.8" fill="#15130e" opacity="0.50"/><rect x="384.8" y="215.5" width="30.4" height="42.8" fill="#15130e" opacity="0.57"/><rect x="439.1" y="215.5" width="30.4" height="42.8" fill="#3d3623" opacity="0.70"/><rect x="493.4" y="215.5" width="30.4" height="42.8" fill="#3d3623" opacity="0.76"/><rect x="547.7" y="215.5" width="30.4" height="42.8" fill="#15130e" opacity="0.80"/><rect x="221.9" y="286.8" width="30.4" height="42.8" fill="#ff8c1a" opacity="0.92"/><rect x="276.2" y="286.8" width="30.4" height="42.8" fill="#ffd24d" opacity="0.85"/><rect x="330.5" y="286.8" width="30.4" height="42.8" fill="#ff8c1a" opacity="0.88"/><rect x="384.8" y="286.8" width="30.4" height="42.8" fill="#ffd24d" opacity="0.97"/><rect x="439.1" y="286.8" width="30.4" height="42.8" fill="#ff8c1a" opacity="0.90"/><rect x="493.4" y="286.8" width="30.4" height="42.8" fill="#ff8c1a" opacity="0.97"/><rect x="547.7" y="286.8" width="30.4" height="42.8" fill="#ff8c1a" opacity="0.85"/><rect x="221.9" y="358.0" width="30.4" height="42.8" fill="#ff8c1a" opacity="0.89"/><rect x="276.2" y="358.0" width="30.4" height="42.8" fill="#ffd24d" opacity="0.77"/><rect x="330.5" y="358.0" width="30.4" height="42.8" fill="#ff8c1a" opacity="0.89"/><rect x="384.8" y="358.0" width="30.4" height="42.8" fill="#ff8c1a" opacity="0.90"/><rect x="439.1" y="358.0" width="30.4" height="42.8" fill="#ff8c1a" opacity="0.88"/><rect x="493.4" y="358.0" width="30.4" height="42.8" fill="#ff8c1a" opacity="0.93"/><rect x="547.7" y="358.0" width="30.4" height="42.8" fill="#ff8c1a" opacity="0.78"/><rect x="221.9" y="429.3" width="30.4" height="42.8" fill="#15130e" opacity="0.69"/><rect x="276.2" y="429.3" width="30.4" height="42.8" fill="#3d3623" opacity="0.59"/><rect x="330.5" y="429.3" width="30.4" height="42.8" fill="#15130e" opacity="0.65"/><rect x="384.8" y="429.3" width="30.4" height="42.8" fill="#3d3623" opacity="0.63"/><rect x="439.1" y="429.3" width="30.4" height="42.8" fill="#15130e" opacity="0.65"/><rect x="493.4" y="429.3" width="30.4" height="42.8" fill="#3d3623" opacity="0.79"/><rect x="547.7" y="429.3" width="30.4" height="42.8" fill="#15130e" opacity="0.65"/><rect x="221.9" y="500.5" width="30.4" height="42.8" fill="#15130e" opacity="0.70"/><rect x="276.2" y="500.5" width="30.4" height="42.8" fill="#15130e" opacity="0.71"/><rect x="330.5" y="500.5" width="30.4" height="42.8" fill="#3d3623" opacity="0.90"/><rect x="384.8" y="500.5" width="30.4" height="42.8" fill="#15130e" opacity="0.88"/><rect x="439.1" y="500.5" width="30.4" height="42.8" fill="#3d3623" opacity="0.54"/><rect x="493.4" y="500.5" width="30.4" height="42.8" fill="#15130e" opacity="0.69"/><rect x="547.7" y="500.5" width="30.4" height="42.8" fill="#15130e" opacity="0.53"/><rect x="221.9" y="571.8" width="30.4" height="42.8" fill="#15130e" opacity="0.80"/><rect x="276.2" y="571.8" width="30.4" height="42.8" fill="#3d3623" opacity="0.57"/><rect x="330.5" y="571.8" width="30.4" height="42.8" fill="#3d3623" opacity="0.57"/><rect x="384.8" y="571.8" width="30.4" height="42.8" fill="#15130e" opacity="0.85"/><rect x="439.1" y="571.8" width="30.4" height="42.8" fill="#15130e" opacity="0.67"/><rect x="493.4" y="571.8" width="30.4" height="42.8" fill="#15130e" opacity="0.74"/><rect x="547.7" y="571.8" width="30.4" height="42.8" fill="#15130e" opacity="0.79"/><rect x="221.9" y="643.0" width="30.4" height="42.8" fill="#15130e" opacity="0.73"/><rect x="276.2" y="643.0" width="30.4" height="42.8" fill="#15130e" opacity="0.78"/><rect x="330.5" y="643.0" width="30.4" height="42.8" fill="#15130e" opacity="0.78"/><rect x="384.8" y="643.0" width="30.4" height="42.8" fill="#15130e" opacity="0.86"/><rect x="439.1" y="643.0" width="30.4" height="42.8" fill="#15130e" opacity="0.81"/><rect x="493.4" y="643.0" width="30.4" height="42.8" fill="#3d3623" opacity="0.55"/><rect x="547.7" y="643.0" width="30.4" height="42.8" fill="#15130e" opacity="0.82"/><ellipse cx="400" cy="306.5" rx="235.6" ry="46" fill="#ff7a1a" opacity="0.3" filter="url(#blur)"/><path d="M220.55013717421124 302.5 Q225.6200548696845 283.0710849622771 229 267.1746999314129 Q233.22493141289436 284.83734996570644 237.44986282578876 302.5 Z" fill="url(#flame)" opacity="0.97" filter="url(#blurS)"/><path d="M252.63275034293554 302.5 Q261.2531001371742 276.28504972565156 267 254.83645404663923 Q274.18362482853223 278.6682270233196 281.36724965706446 302.5 Z" fill="url(#flame)" opacity="0.91" filter="url(#blurS)"/><path d="M296.06721536351165 302.5 Q301.42688614540464 275.1798015260631 305 252.8269118655693 Q309.4663923182442 277.66345593278464 313.93278463648835 302.5 Z" fill="url(#flame)" opacity="0.86" filter="url(#blurS)"/><path d="M331.5201989026063 302.5 Q338.40807956104254 269.213673696845 343 241.97940672153635 Q348.7399005486968 272.2397033607682 354.4798010973937 302.5 Z" fill="url(#flame)" opacity="0.91" filter="url(#blurS)"/><path d="M371.65836762688616 302.5 Q377.2633470507545 273.1449995713306 381 249.1272719478738 Q385.6708161865569 275.8136359739369 390.34163237311384 302.5 Z" fill="url(#flame)" opacity="0.93" filter="url(#blurS)"/><path d="M405.1483882030178 302.5 Q413.45935528120714 276.4321124828532 419 255.10384087791493 Q425.9258058984911 278.8019204389575 432.8516117969822 302.5 Z" fill="url(#flame)" opacity="0.81" filter="url(#blurS)"/><path d="M444.65692729766806 302.5 Q452.0627709190672 268.53334576474623 457 240.74244684499314 Q463.17153635116597 271.62122342249654 469.34307270233194 302.5 Z" fill="url(#flame)" opacity="0.84" filter="url(#blurS)"/><path d="M486.8506515775034 302.5 Q491.7402606310014 264.20703275034293 495 232.8764231824417 Q499.0746742112483 267.68821159122086 503.1493484224966 302.5 Z" fill="url(#flame)" opacity="0.89" filter="url(#blurS)"/><path d="M520.3962277091907 302.5 Q527.9584910836762 278.2115067729767 533 258.33910322359395 Q539.3018861454046 280.419551611797 545.6037722908093 302.5 Z" fill="url(#flame)" opacity="0.86" filter="url(#blurS)"/><path d="M557.9603223593964 302.5 Q565.7841289437586 274.7051011659808 571 251.96382030178327 Q577.5198388203017 277.2319101508916 584.0396776406036 302.5 Z" fill="url(#flame)" opacity="0.82" filter="url(#blurS)"/><rect x="0" y="700" width="800" height="100" fill="#141210"/>
  <ellipse cx="400" cy="706" rx="330" ry="16" fill="#ff7a1a" opacity="0.12"/>
  <rect x="70" y="712" width="10" height="26" fill="#e14b4b" opacity="0.85"/>
  <rect x="86" y="712" width="10" height="26" fill="#4b7fe1" opacity="0.75"/>
  <ellipse cx="88" cy="748" rx="60" ry="9" fill="#e14b4b" opacity="0.18"/></svg>