<svg xmlns="http://www.w3.org/2000/svg" viewBox="0 0 800 800" width="800" height="800">
  <defs>
    <linearGradient id="sky" x1="0" y1="0" x2="0" y2="1">
      <stop offset="0" stop-color="#0e0d12"/>
      <stop offset="1" stop-color="#190f07"/>
    </linearGradient>
    <radialGradient id="glow" cx="0.5" cy="0.6" r="0.75">
      <stop offset="0" stop-color="#ff6a1a" stop-opacity="0.55"/>
      <stop offset="1" stop-color="#ff6a1a" stop-opacity="0"/>
    </radialGradient>
    <linearGradient id="flame" x1="0" y1="1" x2="0" y2="0">
      <stop offset="0" stop-color="#ff5a1f"/>
      <stop offset="0.55" stop-color="#ff9a1f"/>
      <stop offset="1" stop-color="#ffe066"/>
    </linearGradient>
    <filter id="blur" x="-80%" y="-80%" width="260%" height="260%"><feGaussianBlur stdDeviation="18"/></filter>
    <filter id="blurS" x="-50%" y="-50%" width="200%" height="200%"><feGaussianBlur stdDeviation="4"/></filter>
  </defs>
  <rect width="800" height="800" fill="url(#sky)"/>
  <rect width="800" height="800" fill="url(#glow)"/><rect x="-20.0" y="401.1" width="64.6" height="328.9" fill="#0b0a08" opacity="0.85"/><rect x="52.6" y="409.2" width="63.2" height="320.8" fill="#0b0a08" opacity="0.85"/><rect x="123.9" y="326.6" width="60.3" height="403.4" fill="#0b0a08" opacity="0.85"/><rect x="192.2" y="401.6" width="163.3" height="328.4" fill="#0b0a08" opacity="0.85"/><rect x="363.5" y="371.2" width="169.7" height="358.8" fill="#0b0a08" opacity="0.85"/><rect x="541.2" y="294.6" width="129.8" height="435.4" fill="#0b0a08" opacity="0.85"/><rect x="679.0" y="386.7" width="102.0" height="343.3" fill="#0b0a08" opacity="0.85"/><rect x="789.0" y="301.2" width="91.8" height="428.8" fill="#0b0a08" opacity="0.85"/><path d="M90 700 V430 l70 -50 v50 l70 -50 v50 l70 -50 v50 l70 -50 v50 l70 -50 v50 l70 -50 v50 l70 -50 V700 Z" fill="#181410"/><rect x="620" y="240" width="40" height="200" fill="#141210"/><rect x="124.2" y="493.3" width="36.1" height="40.0" fill="#15130e" opacity="0.89"/><rect x="188.6" y="493.3" width="36.1" height="40.0" fill="#15130e" opacity="0.78"/><rect x="253.1" y="493.3" width="36.1" height="40.0" fill="#15130e" opacity="0.80"/><rect x="317.5" y="493.3" width="36.1" height="40.0" fill="#15130e" opacity="0.70"/><rect x="382.0" y="493.3" width="36.1" height="40.0" fill="#15130e" opacity="0.90"/><rect x="446.4" y="493.3" width="36.1" height="40.0" fill="#15130e" opacity="0.75"/><rect x="510.8" y="493.3" width="36.1" height="40.0" fill="#15130e" opacity="0.77"/><rect x="575.3" y="493.3" width="36.1" height="40.0" fill="#15130e" opacity="0.66"/><rect x="639.7" y="493.3" width="36.1" height="40.0" fill="#15130e" opacity="0.79"/><rect x="124.2" y="560.0" width="36.1" height="40.0" fill="#ffd24d" opacity="0.97"/><rect x="188.6" y="560.0" width="36.1" height="40.0" fill="#ff8c1a" opacity="0.81"/><rect x="253.1" y="560.0" width="36.1" height="40.0" fill="#ff8c1a" opacity="0.85"/><rect x="317.5" y="560.0" width="36.1" height="40.0" fill="#ff8c1a" opacity="0.84"/><rect x="382.0" y="560.0" width="36.1" height="40.0" fill="#ff8c1a" opacity="0.96"/><rect x="446.4" y="560.0" width="36.1" height="40.0" fill="#ff8c1a" opacity="0.98"/><rect x="510.8" y="560.0" width="36.1" height="40.0" fill="#ffd24d" opacity="0.88"/><rect x="575.3" y="560.0" width="36.1" height="40.0" fill="#ffd24d" opacity="0.89"/><rect x="639.7" y="560.0" width="36.1" height="40.0" fill="#ff8c1a" opacity="0.92"/><rect x="124.2" y="626.7" width="36.1" height="40.0" fill="#ffd24d" opacity="0.92"/><rect x="188.6" y="626.7" width="36.1" height="40.0" fill="#ff8c1a" opacity="0.92"/><rect x="253.1" y="626.7" width="36.1" height="40.0" fill="#ff8c1a" opacity="0.99"/><rect x="317.5" y="626.7" width="36.1" height="40.0" fill="#ff8c1a" opacity="0.79"/><rect x="382.0" y="626.7" width="36.1" height="40.0" fill="#ff8c1a" opacity="0.90"/><rect x="446.4" y="626.7" width="36.1" height="40.0" fill="#ff8c1a" opacity="0.78"/><rect x="510.8" y="626.7" width="36.1" height="40.0" fill="#ff8c1a" opacity="0.82"/><rect x="575.3" y="626.7" width="36.1" height="40.0" fill="#ff8c1a" opacity="0.91"/><rect x="639.7" y="626.7" width="36.1" height="40.0" fill="#ff8c1a" opacity="0.88"/><ellipse cx="400" cy="660" rx="330" ry="60" fill="#ff7a1a" opacity="0.28" filter="url(#blur)"/><path d="M149.86917009602195 640 Q155.94766803840878 615.8211531207133 160 596.0384602194788 Q165.06541495198903 618.0192301097394 170.13082990397805 640 Z" fill="url(#flame)" opacity="0.84" filter="url(#blurS)"/><path d="M190.08141289437586 640 Q196.03256515775035 619.2839604766804 200 602.3344735939643 Q204.95929355281208 621.1672367969821 209.91858710562414 640 Z" fill="url(#flame)" opacity="0.89" filter="url(#blurS)"/><path d="M226.31217421124828 640 Q234.52486968449932 605.2358882030178 240 576.7925240054869 Q246.84391289437585 608.3962620027435 253.68782578875172 640 Z" fill="url(#flame)" opacity="0.93" filter="url(#blurS)"/><path d="M271.2281207133059 640 Q276.49124828532234 613.735269633059 280 592.2459447873799 Q284.38593964334706 616.12297239369 288.7718792866941 640 Z" fill="url(#flame)" opacity="0.85" filter="url(#blurS)"/><path d="M305.49591906721537 640 Q314.1983676268861 608.9404381001372 320 583.5280692729767 Q327.2520404663923 611.7640346364883 334.50408093278463 640 Z" fill="url(#flame)" opacity="0.93" filter="url(#blurS)"/><path d="M349.78223593964333 640 Q355.9128943758573 605.6097269375857 360 577.4722307956105 Q365.10888203017834 608.7361153978052 370.21776406035667 640 Z" fill="url(#flame)" opacity="0.85" filter="url(#blurS)"/><path d="M392.7537379972565 640 Q397.1014951989026 618.501469478738 400 600.9117626886145 Q403.62313100137175 620.4558813443073 407.2462620027435 640 Z" fill="url(#flame)" opacity="0.90" filter="url(#blurS)"/><path d="M431.07709190672153 640 Q436.4308367626886 611.7739990569273 440 588.6799982853223 Q444.46145404663923 614.3399991426612 448.92290809327847 640 Z" fill="url(#flame)" opacity="0.97" filter="url(#blurS)"/><path d="M469.4189643347051 640 Q475.767585733882 600.185649005487 480 567.6102709190673 Q485.2905178326475 603.8051354595336 490.5810356652949 640 Z" fill="url(#flame)" opacity="0.92" filter="url(#blurS)"/><path d="M512.4460219478738 640 Q516.9784087791495 598.4947526577504 520 564.5359139231824 Q523.7769890260631 602.2679569615913 527.5539780521262 640 Z" fill="url(#flame)" opacity="0.86" filter="url(#blurS)"/><path d="M548.8249314128943 640 Q555.5299725651578 596.1596433470507 560 560.2902606310014 Q565.5875342935528 600.1451303155006 571.1750685871057 640 Z" fill="url(#flame)" opacity="0.85" filter="url(#blurS)"/><path d="M591.2223593964335 640 Q596.4889437585734 607.9386544067215 600 581.7066443758573 Q604.3888203017833 610.8533221879287 608.7776406035665 640 Z" fill="url(#flame)" opacity="0.99" filter="url(#blurS)"/><path d="M628.3049725651578 640 Q635.3219890260631 597.990119170096 640 563.6183984910837 Q645.8475137174212 601.8091992455419 651.6950274348422 640 Z" fill="url(#flame)" opacity="0.95" filter="url(#blurS)"/><circle cx="380.0" cy="420.0" r="44.2" fill="#5a5248" opacity="0.50" filter="url(#blur)"/><circle cx="393.2" cy="373.6" r="53.9" fill="#5a5248" opacity="0.45" filter="url(#blur)"/><circle cx="375.7" cy="317.0" r="65.8" fill="#5a5248" opacity="0.39" filter="url(#blur)"/><circle cx="364.6" cy="247.9" r="80.3" fill="#5a5248" opacity="0.33" filter="url(#blur)"/><circle cx="397.7" cy="163.6" r="97.9" fill="#5a5248" opacity="0.28" filter="url(#blur)"/><circle cx="432.1" cy="60.8" r="119.5" fill="#5a5248" opacity="0.22" filter="url(#blur)"/><circle cx="440.2" cy="-64.6" r="145.7" fill="#5a5248" opacity="0.17" filter="url(#blur)"/><rect x="0" y="700" width="800" height="100" fill="#141210"/>
  <ellipse cx="400" cy="706" rx="330" ry="16" fill="#ff7a1a" opacity="0.12"/>
  <rect x="70" y="712" width="10" height="26" fill="#e14b4b" opacity="0.85"/>
  <rect x="86" y="712" width="10" height="26" fill="#4b7fe1" opacity="0.75"/>
  <ellipse cx="88" cy="748" rx="60" ry="9" fill="#e14b4b" opacity="0.18"/></svg>